<?xml version="1.0" encoding="utf-8"?>
<!-- Generator: Adobe Illustrator 19.1.0, SVG Export Plug-In . SVG Version: 6.00 Build 0)  -->
<svg version="1.1" xmlns="http://www.w3.org/2000/svg" xmlns:xlink="http://www.w3.org/1999/xlink" x="0px" y="0px"
	 viewBox="0 0 504 504" style="enable-background:new 0 0 504 504;" xml:space="preserve">
<g id="Capa_5">
</g>
<g id="Capa_4">
	<path d="M126,54v378h108v-36h36v36h108V54H126z M198,342h-36v-36h36V342z M198,270h-36v-36h36V270z M198,198h-36v-36h36V198z
		 M198,126h-36V90h36V126z M270,342h-36v-36h36V342z M270,270h-36v-36h36V270z M270,198h-36v-36h36V198z M270,126h-36V90h36V126z
		 M342,342h-36v-36h36V342z M342,270h-36v-36h36V270z M342,198h-36v-36h36V198z M342,126h-36V90h36V126z"/>
	<rect x="234" y="360" width="36" height="36"/>
</g>
</svg>
