<?xml version="1.0" encoding="utf-8"?>
<!-- Generator: Adobe Illustrator 19.1.0, SVG Export Plug-In . SVG Version: 6.00 Build 0)  -->
<svg version="1.1" xmlns="http://www.w3.org/2000/svg" xmlns:xlink="http://www.w3.org/1999/xlink" x="0px" y="0px"
	 viewBox="-387 149 504 504" style="enable-background:new -387 149 504 504;" xml:space="preserve">
<g id="Capa_3">
	
		<image style="display:none;overflow:visible;opacity:0.2;" width="354" height="415" xlink:href="DCACA05C.jpg"  transform="matrix(1.2147 0 0 1.2147 -316 150)">
	</image>
	<g>
		<path d="M-91.079,229.62l63.376,63.376v89.627l-43.183,43.183l-8.787,8.787v12.426v36.482l-32.935,32.928h-46.569l-32.926-32.926
			V447.03v-12.426l-8.787-8.787l-43.193-43.193v-89.627l63.376-63.376H-91.079 M-78.653,199.62h-114.48l-80.95,80.95v114.48
			l51.98,51.98v48.9l50.5,50.5h71.42l50.51-50.5v-48.91l51.97-51.97V280.57L-78.653,199.62L-78.653,199.62z"/>
	</g>
	<rect x="-173.375" y="555.687" width="74.964" height="25.959"/>
	<rect x="-173.375" y="590.299" width="74.964" height="25.959"/>
</g>
<g id="Capa_2">
</g>
</svg>
