<?xml version="1.0" encoding="utf-8"?>
<!-- Generator: Adobe Illustrator 19.1.0, SVG Export Plug-In . SVG Version: 6.00 Build 0)  -->
<svg version="1.1" id="Capa_1" xmlns="http://www.w3.org/2000/svg" xmlns:xlink="http://www.w3.org/1999/xlink" x="0px" y="0px"
	 viewBox="0 0 640 480" style="enable-background:new 0 0 640 480;" xml:space="preserve">
<style type="text/css">
	.st0{fill:#181818;}
</style>
<g>
	<path class="st0" d="M438.5,318.3l-39.1,39.1c-37.1-39-98.1-46.1-143.5-14.3c-5.4,3.8-10.3,7.9-14.8,12.4l-39.1-39.1
		c6.7-6.7,14.2-12.9,22.2-18.6C291.8,250.4,382.7,260.6,438.5,318.3z"/>
	<path class="st0" d="M516.7,240l-39.1,39.1c-74.4-76.4-195.1-89.7-285.2-26.6c-10.7,7.5-20.6,15.7-29.6,24.8l-39.1-39.1
		c11.3-11.2,23.6-21.6,37-31C273.1,128.5,423.7,145,516.7,240z"/>
	<path class="st0" d="M595,161.8l-39.1,39.1c-111.6-113.6-292.2-133.4-426.9-39c-16.1,11.3-30.9,23.7-44.4,37.1l-39.1-39.1
		c15.8-15.7,33-30.2,51.8-43.3C254.3,6.6,464.7,29.5,595,161.8z"/>
	<path class="st0" d="M438.5,318.3l-39.1,39.1c-37.1-39-98.1-46.1-143.5-14.3c-5.4,3.8-10.3,7.9-14.8,12.4l-39.1-39.1
		c6.7-6.7,14.2-12.9,22.2-18.6C291.8,250.4,382.7,260.6,438.5,318.3z"/>
	<path class="st0" d="M516.7,240l-39.1,39.1c-74.4-76.4-195.1-89.7-285.2-26.6c-10.7,7.5-20.6,15.7-29.6,24.8l-39.1-39.1
		c11.3-11.2,23.6-21.6,37-31C273.1,128.5,423.7,145,516.7,240z"/>
	<path class="st0" d="M438.5,318.3l-39.1,39.1c-37.1-39-98.1-46.1-143.5-14.3c-5.4,3.8-10.3,7.9-14.8,12.4l-39.1-39.1
		c6.7-6.7,14.2-12.9,22.2-18.6C291.8,250.4,382.7,260.6,438.5,318.3z"/>
	<path class="st0" d="M516.7,240l-39.1,39.1c-74.4-76.4-195.1-89.7-285.2-26.6c-10.7,7.5-20.6,15.7-29.6,24.8l-39.1-39.1
		c11.3-11.2,23.6-21.6,37-31C273.1,128.5,423.7,145,516.7,240z"/>
	<path class="st0" d="M438.5,318.3l-39.1,39.1c-37.1-39-98.1-46.1-143.5-14.3c-5.4,3.8-10.3,7.9-14.8,12.4l-39.1-39.1
		c6.7-6.7,14.2-12.9,22.2-18.6C291.8,250.4,382.7,260.6,438.5,318.3z"/>
	<path class="st0" d="M438.5,318.3l-39.1,39.1c-37.1-39-98.1-46.1-143.5-14.3c-5.4,3.8-10.3,7.9-14.8,12.4l-39.1-39.1
		c6.7-6.7,14.2-12.9,22.2-18.6C291.8,250.4,382.7,260.6,438.5,318.3z"/>
	<path class="st0" d="M358.3,394.6L358.3,394.6l-39.1,39.1l-39.1-39.1C301.7,373.1,336.7,373,358.3,394.6z"/>
</g>
</svg>
