<?xml version="1.0" encoding="utf-8"?>
<!-- Generator: Adobe Illustrator 19.1.0, SVG Export Plug-In . SVG Version: 6.00 Build 0)  -->
<svg version="1.1" id="Capa_3" xmlns="http://www.w3.org/2000/svg" xmlns:xlink="http://www.w3.org/1999/xlink" x="0px" y="0px"
	 viewBox="-387 149 504 504" style="enable-background:new -387 149 504 504;" xml:space="preserve">
<rect x="-150.26" y="538.15" width="30.16" height="0.01"/>
<rect x="-150.26" y="508" width="30.16" height="0.08"/>
<g>
	<rect x="-150.26" y="538.08" width="1.1" height="0.07"/>
	<path d="M-150.26,508v0.08h1.1V508H-150.26z M-150.26,538.15v0.01h1.1v-0.01H-150.26z"/>
</g>
<rect x="-150.26" y="508" width="30.16" height="0.08"/>
<rect x="-150.26" y="538.08" width="30.16" height="0.08"/>
<path d="M86.51,568.15V208.63h-443.38v359.52h176.69v30h-63.4v30h218.16v-30h-64.76v-30H86.51z M-326.87,478.08V238.63H56.51v239.45
	H-326.87z M-150.26,508.08V508H-119v30.16h-31.26v-0.08h1.1v-30H-150.26z"/>
</svg>
