<?xml version="1.0" encoding="UTF-8" ?>
<!DOCTYPE svg PUBLIC "-//W3C//DTD SVG 1.1//EN" "http://www.w3.org/Graphics/SVG/1.1/DTD/svg11.dtd">
<svg width="1505pt" height="664pt" viewBox="0 0 1505 664" version="1.1" xmlns="http://www.w3.org/2000/svg">
<path fill="#000000" d=" M 0.00 0.00 L 0.91 0.00 L 1.26 0.75 C 0.94 0.98 0.31 1.45 0.00 1.69 L 0.00 0.00 Z" />
<path fill="#ffffff" d=" M 0.91 0.00 L 1503.25 0.00 C 1503.22 1.16 1503.80 1.81 1505.00 1.94 L 1505.00 663.14 L 1504.23 662.80 C 1503.97 663.10 1503.45 663.70 1503.19 664.00 L 1.69 664.00 C 1.45 663.69 0.98 663.06 0.75 662.74 L 0.00 663.09 L 0.00 1.69 C 0.31 1.45 0.94 0.98 1.26 0.75 L 0.91 0.00 Z" />
<path fill="#000000" d=" M 1503.25 0.00 L 1505.00 0.00 L 1505.00 1.94 C 1503.80 1.81 1503.22 1.16 1503.25 0.00 Z" />
<path fill="#000000" d=" M 519.08 91.10 C 521.62 89.21 524.89 88.59 528.01 88.71 C 686.35 88.78 844.70 88.66 1003.04 88.77 C 1004.16 89.09 1005.31 89.39 1006.47 89.66 C 1008.47 90.95 1010.02 92.78 1011.40 94.71 C 1011.94 99.80 1011.68 104.92 1011.74 110.03 C 1011.74 264.69 1011.74 419.35 1011.75 574.01 C 1011.83 576.21 1011.20 578.34 1010.50 580.41 C 1008.35 582.87 1005.32 584.68 1001.97 584.53 C 844.98 584.58 687.99 584.52 531.00 584.56 C 527.12 584.45 522.70 585.17 519.47 582.51 C 517.32 581.04 516.68 578.41 515.73 576.15 C 515.72 416.69 515.77 257.23 515.71 97.77 C 516.53 95.44 517.03 92.73 519.08 91.10 Z" />
<path fill="#ffffff" d=" M 532.57 108.77 C 533.61 107.67 534.68 106.60 535.78 105.54 C 588.18 105.14 640.58 105.48 692.98 105.37 C 791.66 105.39 890.34 105.34 989.03 105.40 C 991.93 104.93 993.93 107.29 995.33 109.46 C 995.44 256.64 995.34 403.82 995.37 550.99 C 995.15 556.08 996.10 561.37 994.26 566.26 C 992.59 567.03 990.89 567.72 989.15 568.28 C 986.09 568.19 983.04 568.22 980.00 568.21 C 975.33 568.22 970.66 568.21 966.00 568.21 C 951.31 568.23 936.62 568.19 921.93 568.23 C 920.30 568.17 918.68 568.16 917.07 568.23 C 913.04 568.21 909.01 568.21 904.99 568.21 C 866.33 568.22 827.66 568.22 789.00 568.21 C 766.66 568.22 744.33 568.22 722.00 568.21 C 711.67 568.22 701.33 568.22 691.00 568.21 C 678.00 568.22 665.00 568.22 652.00 568.21 C 645.33 568.22 638.66 568.22 632.00 568.21 C 619.33 568.22 606.67 568.22 594.00 568.21 C 575.96 568.21 557.92 568.23 539.88 568.20 C 536.92 568.35 534.26 566.97 532.56 564.58 C 532.23 510.06 532.51 455.52 532.41 400.99 C 532.41 338.98 532.41 276.98 532.41 214.97 C 532.51 179.57 532.19 144.17 532.57 108.77 Z" />
<path fill="#000000" d=" M 580.28 204.97 C 579.69 201.74 583.37 200.36 586.00 200.70 C 610.97 200.79 635.94 200.58 660.91 200.81 C 666.80 202.44 673.00 200.80 678.95 202.19 C 684.03 202.31 689.03 203.23 694.07 203.84 C 698.81 204.94 703.53 206.19 708.13 207.80 C 717.97 211.93 727.72 217.01 735.02 224.98 C 743.16 233.03 747.88 243.79 750.23 254.87 C 750.65 261.23 750.68 267.58 750.18 273.94 C 748.06 284.43 744.03 294.75 737.08 303.02 C 732.18 309.84 725.09 314.72 717.92 318.90 C 715.33 320.20 712.76 321.54 710.24 322.97 C 710.08 324.82 710.80 326.36 712.43 327.32 C 718.18 328.90 723.74 331.16 729.09 333.80 C 741.59 340.43 752.24 350.91 757.81 364.04 C 760.63 371.00 763.07 378.39 762.69 386.01 C 762.55 392.36 763.03 398.75 762.19 405.08 C 761.72 406.68 761.30 408.30 760.83 409.90 C 759.85 412.90 758.88 415.89 757.85 418.86 C 750.77 435.95 736.03 449.14 719.20 456.30 C 716.53 457.32 713.86 458.31 711.15 459.17 C 710.15 459.50 709.17 459.85 708.20 460.22 C 700.32 462.53 692.12 463.97 683.89 463.78 C 677.93 464.43 671.96 464.91 665.97 464.72 C 638.63 464.67 611.29 464.81 583.95 464.65 C 581.43 464.91 579.92 462.35 580.25 460.10 C 580.24 375.06 580.20 290.01 580.28 204.97 Z" />
<path fill="#ffffff" d=" M 611.60 231.33 C 612.75 229.99 613.99 228.75 615.33 227.60 C 628.54 227.44 641.76 227.46 654.97 227.57 C 660.89 228.81 667.00 227.80 672.92 229.07 C 680.61 229.95 688.36 231.38 695.54 234.39 C 704.05 237.95 711.04 244.79 714.98 253.11 C 718.25 263.45 718.53 274.68 714.89 284.98 C 711.91 292.05 706.56 297.96 700.21 302.20 C 695.42 304.97 690.41 307.41 685.17 309.25 C 681.37 310.10 677.59 311.01 673.85 312.08 C 671.27 312.54 668.65 312.67 666.05 312.90 C 663.06 313.63 659.93 313.36 656.96 314.16 C 643.14 314.63 629.28 314.32 615.45 314.32 C 614.07 313.19 612.79 311.96 611.61 310.62 C 611.44 284.19 611.46 257.76 611.60 231.33 Z" />
<path fill="#000000" d=" M 1376.52 260.18 C 1381.99 256.27 1388.96 255.81 1395.16 253.60 C 1395.74 253.89 1396.89 254.47 1397.47 254.76 C 1398.67 259.76 1398.15 264.93 1398.25 270.03 C 1398.30 277.34 1398.13 284.65 1398.32 291.95 C 1398.17 294.94 1401.02 296.93 1403.76 297.15 C 1413.11 297.57 1422.52 296.79 1431.87 297.57 C 1432.23 298.19 1432.95 299.43 1433.31 300.05 C 1433.39 303.08 1433.38 306.12 1433.33 309.16 C 1433.03 309.67 1432.42 310.69 1432.12 311.20 C 1431.10 311.54 1430.11 311.89 1429.13 312.24 C 1420.44 312.29 1411.74 312.12 1403.06 312.32 C 1400.21 312.33 1397.95 315.22 1398.27 317.98 C 1398.23 346.31 1398.23 374.64 1398.28 402.97 C 1398.39 411.09 1400.79 420.68 1408.99 424.21 C 1412.94 424.79 1416.98 424.86 1420.94 424.14 C 1425.38 423.24 1430.01 420.61 1434.51 422.52 C 1434.76 427.13 1435.12 431.83 1434.41 436.41 C 1431.66 440.47 1426.37 440.93 1422.04 442.17 C 1415.36 442.99 1408.57 443.00 1401.89 442.22 C 1400.51 441.84 1399.17 441.50 1397.82 441.18 C 1396.16 440.54 1394.51 439.90 1392.87 439.26 C 1387.17 436.02 1382.61 431.15 1379.69 425.29 C 1378.68 422.23 1377.71 419.17 1376.73 416.12 C 1376.44 413.72 1376.24 411.32 1376.12 408.92 C 1375.06 404.35 1375.37 399.64 1375.35 395.00 C 1375.35 371.99 1375.35 348.98 1375.36 325.98 C 1375.31 321.99 1375.77 317.87 1374.26 314.07 C 1373.43 313.52 1372.61 312.97 1371.82 312.42 C 1365.48 312.02 1359.12 312.36 1352.78 312.22 C 1351.07 312.20 1349.44 311.65 1347.91 310.99 C 1346.78 307.77 1347.29 304.25 1347.30 300.91 C 1347.15 299.19 1348.41 297.38 1350.24 297.37 C 1356.51 297.01 1362.82 297.45 1369.11 297.19 C 1370.97 297.08 1372.61 296.08 1374.27 295.29 C 1376.92 285.79 1373.97 275.68 1376.14 266.08 C 1376.22 264.11 1376.34 262.14 1376.52 260.18 Z" />
<path fill="#000000" d=" M 427.44 258.76 C 429.57 258.24 431.74 257.28 433.98 257.84 C 434.59 259.10 435.34 260.40 435.29 261.86 C 435.42 272.89 435.19 283.93 435.38 294.97 C 435.34 297.90 438.08 300.20 440.91 300.22 C 449.68 300.47 458.45 300.11 467.22 300.40 C 467.77 300.82 468.86 301.66 469.40 302.08 C 469.78 305.66 469.79 309.28 469.34 312.86 C 468.74 313.23 467.54 313.98 466.94 314.36 C 457.51 314.62 448.08 314.22 438.65 314.60 C 437.56 315.62 436.51 316.67 435.48 317.75 C 435.10 343.82 435.42 369.90 435.32 395.98 C 435.37 400.97 435.05 405.99 435.83 410.94 C 436.77 416.55 439.96 421.57 445.07 424.24 C 449.00 424.74 453.00 424.87 456.95 424.50 C 461.09 423.72 465.08 422.00 469.37 422.24 C 471.27 426.60 470.44 431.54 470.32 436.16 C 468.28 440.78 462.32 440.89 458.11 442.22 C 451.40 443.02 444.59 442.95 437.88 442.22 C 430.58 440.23 423.32 436.36 419.28 429.73 C 413.96 421.14 412.90 410.84 412.44 400.99 C 412.46 374.29 412.47 347.59 412.44 320.89 C 412.79 317.73 410.28 314.49 407.02 314.51 C 400.65 314.31 394.27 314.55 387.90 314.39 C 387.30 314.03 386.12 313.31 385.52 312.96 C 385.19 309.70 385.01 306.41 385.36 303.16 C 385.43 301.38 387.25 300.24 388.92 300.36 C 394.96 300.11 401.01 300.49 407.05 300.21 C 409.43 300.13 411.02 298.25 412.36 296.53 C 412.75 289.71 411.88 282.82 413.12 276.06 C 413.49 272.11 413.10 268.12 413.56 264.16 C 417.63 261.16 422.69 260.19 427.44 258.76 Z" />
<path fill="#000000" d=" M 840.83 264.82 C 849.35 262.55 858.15 260.90 867.02 261.24 C 874.01 261.37 881.04 260.83 887.99 261.91 C 903.10 263.95 917.43 270.26 929.64 279.31 C 933.72 282.56 938.08 285.57 941.12 289.90 C 947.70 296.61 952.68 304.68 956.92 313.02 C 957.96 315.33 958.92 317.69 959.84 320.06 C 960.29 321.30 960.73 322.55 961.21 323.80 C 961.84 325.83 962.50 327.86 963.17 329.89 C 963.47 330.91 963.79 331.93 964.13 332.95 C 964.80 336.30 965.46 339.66 966.22 343.00 C 966.42 345.40 966.52 347.82 967.17 350.16 C 967.40 359.10 967.32 368.06 967.22 377.00 C 966.30 382.74 965.52 388.50 964.20 394.17 C 963.04 397.74 962.25 401.42 960.88 404.92 C 953.64 425.15 939.42 443.22 919.98 452.88 C 917.69 454.00 915.40 455.11 913.16 456.31 C 905.73 459.52 897.87 461.57 889.95 463.15 C 880.32 464.24 870.63 463.63 860.96 463.80 C 856.61 463.94 852.29 463.42 847.96 463.16 C 842.94 462.23 837.89 461.39 832.95 460.09 C 831.93 459.77 830.90 459.46 829.89 459.18 C 817.91 455.58 806.58 449.87 796.60 442.33 C 794.57 440.73 791.96 438.50 792.74 435.59 C 794.14 430.90 796.13 426.43 797.72 421.81 C 798.96 419.32 799.24 415.95 801.85 414.45 C 804.60 413.78 806.29 416.38 808.22 417.83 C 814.82 423.21 822.02 427.96 829.92 431.22 C 837.21 434.80 845.22 436.37 853.11 438.03 C 860.68 439.20 868.37 438.57 876.01 438.71 C 882.08 438.31 888.04 436.70 893.84 434.90 C 895.95 434.01 898.06 433.14 900.20 432.30 C 912.93 425.61 922.60 414.13 927.94 400.87 C 929.64 395.99 930.88 390.98 932.12 385.98 C 932.45 383.65 932.62 381.29 933.22 379.01 C 933.46 375.96 933.62 372.87 933.19 369.83 C 932.59 368.11 930.72 367.58 929.33 366.72 C 883.55 366.80 837.77 366.72 791.99 366.77 C 790.01 366.77 788.04 366.65 786.09 366.43 C 785.73 365.84 785.01 364.65 784.65 364.05 C 784.07 351.97 784.45 339.82 786.84 327.93 C 788.06 322.94 789.14 317.88 791.25 313.16 C 792.07 310.76 792.98 308.38 794.03 306.07 C 795.29 303.68 796.48 301.26 797.73 298.86 C 804.93 285.74 816.65 275.54 830.08 269.13 C 833.57 267.48 837.27 266.33 840.83 264.82 Z" />
<path fill="#ffffff" d=" M 830.73 304.84 C 838.35 294.50 850.72 288.97 863.11 286.94 C 868.67 286.10 874.36 286.04 879.92 286.95 C 888.40 288.47 897.07 290.60 904.14 295.77 C 912.91 301.55 919.96 309.78 924.76 319.11 C 926.01 321.72 927.15 324.38 928.31 327.04 C 929.81 331.92 931.80 336.81 931.68 342.00 C 930.80 342.87 929.93 343.74 929.08 344.61 C 904.38 344.92 879.68 344.65 854.99 344.74 C 843.58 344.65 832.16 344.93 820.76 344.58 C 819.50 343.26 817.74 341.99 817.71 340.01 C 817.99 337.32 818.53 334.67 818.92 332.01 C 820.88 322.25 824.38 312.62 830.73 304.84 Z" />
<path fill="#000000" d=" M 1247.05 297.03 C 1254.13 294.91 1261.51 293.48 1268.95 293.78 C 1272.28 293.78 1275.63 293.82 1278.99 293.75 C 1286.80 294.53 1294.70 295.14 1302.17 297.78 C 1304.52 298.70 1306.88 299.62 1309.22 300.62 C 1311.91 302.26 1315.35 303.58 1316.43 306.84 C 1316.25 310.46 1314.36 313.72 1313.23 317.10 C 1312.65 319.25 1310.34 321.48 1308.10 319.91 C 1301.95 317.08 1295.43 314.90 1288.68 314.22 L 1288.15 313.83 C 1281.14 312.77 1274.06 313.21 1267.01 313.12 C 1259.71 313.14 1252.09 315.62 1247.02 321.05 C 1240.35 326.64 1240.71 338.18 1247.36 343.65 C 1251.98 347.97 1257.99 350.18 1263.86 352.24 C 1275.17 355.99 1286.82 358.75 1297.89 363.23 C 1307.34 367.13 1316.64 372.80 1322.34 381.53 C 1328.67 391.54 1329.05 404.49 1324.34 415.24 C 1320.14 424.50 1312.13 431.66 1302.90 435.70 C 1296.08 439.17 1288.58 440.89 1281.09 442.14 C 1267.27 443.48 1253.15 442.87 1239.72 439.19 L 1239.21 438.87 C 1238.15 438.54 1237.11 438.19 1236.09 437.84 C 1233.75 436.81 1231.40 435.81 1229.05 434.85 C 1225.22 432.14 1218.42 429.81 1219.32 424.04 C 1220.57 419.36 1222.19 414.75 1223.89 410.21 C 1227.50 409.55 1229.84 412.60 1232.53 414.39 C 1240.97 420.00 1250.95 422.97 1261.01 423.73 C 1264.02 423.83 1267.05 423.67 1270.06 424.09 C 1276.90 423.77 1283.70 422.58 1290.14 420.18 C 1295.87 417.26 1301.52 412.57 1302.92 405.99 C 1304.07 400.24 1302.99 393.58 1298.55 389.44 C 1296.18 386.95 1293.03 385.47 1290.09 383.80 C 1285.83 381.78 1281.34 380.31 1276.76 379.22 L 1276.20 378.86 C 1274.08 378.31 1271.99 377.70 1269.90 377.13 C 1263.21 374.81 1256.43 372.78 1249.83 370.24 C 1238.28 366.08 1226.69 359.28 1221.06 347.92 C 1219.37 344.49 1218.56 340.74 1217.77 337.03 C 1216.79 326.70 1220.08 315.89 1227.60 308.57 C 1232.03 303.65 1238.09 300.76 1244.06 298.16 C 1245.04 297.78 1246.03 297.40 1247.05 297.03 Z" />
<path fill="#000000" d=" M 1084.84 297.69 C 1095.64 292.98 1107.57 294.35 1119.02 294.23 C 1123.53 294.27 1127.86 295.64 1132.19 296.79 C 1133.40 297.27 1134.64 297.74 1135.88 298.24 C 1141.47 300.46 1146.64 303.74 1151.30 307.53 C 1153.48 309.32 1155.76 313.13 1159.03 311.13 C 1160.78 307.69 1160.60 303.76 1160.71 300.01 C 1161.06 299.40 1161.78 298.17 1162.14 297.56 C 1168.69 297.06 1175.32 297.07 1181.88 297.55 C 1182.26 298.15 1183.01 299.35 1183.39 299.94 C 1183.26 309.30 1184.08 318.74 1182.65 328.02 C 1182.49 364.40 1182.77 400.79 1182.52 437.17 C 1182.11 437.72 1181.31 438.82 1180.91 439.37 C 1174.43 439.87 1167.90 439.75 1161.41 439.43 C 1158.64 435.24 1160.25 430.11 1159.35 425.47 C 1158.00 425.39 1156.67 425.35 1155.35 425.37 C 1149.69 430.65 1143.09 435.01 1135.83 437.71 C 1134.62 438.24 1133.42 438.76 1132.24 439.30 C 1128.24 440.54 1124.14 441.34 1120.04 442.11 C 1113.02 442.98 1105.92 442.97 1098.91 442.15 C 1091.28 440.96 1083.91 438.40 1077.04 434.91 C 1060.67 426.19 1050.05 409.56 1044.83 392.16 C 1044.50 391.10 1044.17 390.06 1043.83 389.02 C 1042.95 383.03 1041.23 377.11 1041.52 371.02 C 1041.71 366.00 1041.09 360.91 1042.03 355.95 C 1042.42 348.26 1045.18 341.02 1047.75 333.85 C 1048.89 331.58 1050.00 329.30 1051.13 327.02 C 1054.24 321.39 1057.85 315.87 1062.63 311.50 C 1067.19 307.70 1071.80 303.88 1077.08 301.09 C 1079.63 299.89 1082.24 298.82 1084.84 297.69 Z" />
<path fill="#000000" d=" M 122.05 301.07 C 125.31 299.85 128.64 298.85 131.97 297.83 C 141.61 296.92 151.40 296.93 161.05 297.82 C 164.84 298.91 168.53 300.29 172.18 301.77 C 179.75 305.91 186.31 312.10 189.92 320.03 C 195.94 331.73 197.18 345.06 197.75 358.00 C 197.76 382.67 197.73 407.34 197.76 432.01 C 197.77 434.00 197.66 435.99 197.48 437.98 C 196.90 438.39 195.73 439.19 195.15 439.60 C 189.43 439.60 183.69 439.88 177.99 439.49 C 175.83 439.28 175.09 436.95 175.24 435.09 C 175.20 409.72 175.24 384.35 175.23 358.97 C 175.20 357.67 175.11 356.38 174.95 355.10 C 174.21 345.86 173.16 336.42 168.99 327.98 C 165.94 323.01 161.33 318.93 155.70 317.19 C 145.99 313.91 135.24 314.90 125.79 318.57 C 115.82 323.07 107.45 330.97 102.72 340.88 C 101.49 343.87 100.64 346.99 99.81 350.11 C 99.71 375.06 99.80 400.01 99.77 424.97 C 99.73 429.43 99.95 433.91 99.47 438.37 C 96.31 440.31 92.51 439.51 89.00 439.67 C 85.18 439.44 81.01 440.46 77.55 438.33 C 77.04 433.57 77.30 428.78 77.25 424.00 C 77.20 385.33 77.35 346.66 77.18 307.99 C 76.80 306.32 76.55 304.62 76.37 302.92 C 76.81 302.34 77.68 301.17 78.12 300.58 C 84.55 300.09 91.02 300.22 97.46 300.50 C 100.50 304.23 99.51 309.28 100.68 313.66 C 102.29 313.58 104.06 313.61 105.19 312.24 C 110.17 307.64 115.79 303.71 122.05 301.07 Z" />
<path fill="#000000" d=" M 276.84 301.74 C 281.08 300.08 285.46 298.81 289.89 297.77 C 297.24 296.83 304.66 297.39 312.05 297.24 C 319.28 297.16 326.25 299.43 332.84 302.20 C 340.09 305.72 347.16 310.22 352.03 316.76 C 357.09 322.66 360.23 329.88 362.81 337.13 C 364.58 341.97 365.17 347.11 366.22 352.13 C 366.37 356.43 366.31 360.73 366.78 365.02 C 367.07 367.57 366.53 370.12 365.32 372.39 C 363.24 372.83 361.15 373.35 359.01 373.29 C 328.00 373.27 296.98 373.26 265.97 373.29 C 263.54 373.09 260.51 374.39 260.23 377.09 C 259.96 381.44 260.94 385.78 262.01 389.98 C 264.88 402.30 272.43 414.40 284.31 419.71 C 288.86 422.20 294.02 423.07 299.03 424.18 C 304.63 424.85 310.34 425.00 315.91 423.97 C 323.64 422.87 331.18 420.59 338.07 416.86 C 343.04 414.42 347.27 410.81 351.85 407.76 C 353.67 406.54 355.28 408.13 356.23 409.59 C 357.39 413.79 359.50 417.69 360.41 421.96 C 360.85 423.69 359.38 425.11 358.36 426.33 C 354.47 430.00 349.66 432.49 344.92 434.88 C 342.60 435.94 340.23 436.90 337.86 437.85 C 332.14 440.08 326.03 440.93 320.04 442.12 C 311.01 442.89 301.91 443.08 292.89 442.15 C 287.78 441.26 282.68 440.25 277.85 438.33 C 275.26 437.21 272.65 436.14 270.12 434.89 C 264.08 431.44 258.20 427.50 253.48 422.33 C 249.94 418.15 247.00 413.50 244.07 408.89 C 243.05 406.57 242.10 404.23 241.17 401.88 C 240.81 400.85 240.47 399.81 240.14 398.78 L 239.82 398.27 C 238.65 394.60 237.61 390.89 236.75 387.13 C 236.33 379.76 234.74 372.41 235.64 365.01 C 236.18 361.35 236.40 357.65 236.83 353.97 C 237.76 350.20 238.65 346.41 239.73 342.68 L 240.11 342.11 C 240.47 341.10 240.83 340.10 241.21 339.11 C 246.57 324.92 256.68 312.53 270.01 305.14 C 272.28 303.99 274.57 302.88 276.84 301.74 Z" />
<path fill="#ffffff" d=" M 1093.91 315.75 C 1099.74 313.83 1105.80 312.35 1111.97 312.36 C 1121.29 312.93 1130.97 314.66 1138.80 320.07 C 1146.12 324.84 1151.62 331.97 1155.28 339.84 C 1159.53 350.97 1160.85 363.15 1158.96 374.92 C 1158.40 378.60 1157.81 382.28 1156.77 385.86 C 1156.65 386.43 1156.41 387.57 1156.29 388.15 C 1155.06 391.52 1153.92 394.93 1152.37 398.17 C 1147.30 408.06 1139.24 416.60 1128.91 421.01 C 1117.65 425.10 1105.12 424.62 1093.74 421.29 C 1082.34 417.31 1073.59 407.95 1069.04 396.92 C 1067.14 391.42 1065.73 385.77 1064.85 380.03 C 1064.13 372.40 1064.08 364.65 1064.86 357.03 C 1066.02 352.28 1066.92 347.46 1068.65 342.87 C 1072.75 332.86 1079.37 323.25 1089.21 318.23 C 1090.76 317.38 1092.35 316.60 1093.91 315.75 Z" />
<path fill="#ffffff" d=" M 284.63 319.69 C 288.16 317.64 292.24 317.03 296.10 315.89 C 301.62 315.02 307.30 315.03 312.82 315.91 C 318.01 317.20 323.25 318.94 327.37 322.50 C 331.16 326.04 335.15 329.63 337.34 334.44 C 339.95 338.93 340.80 344.10 342.15 349.04 C 342.33 350.46 342.49 351.88 342.64 353.30 C 341.56 354.37 340.47 355.42 339.35 356.44 C 316.56 356.81 293.77 356.48 270.98 356.61 C 268.22 356.58 265.30 356.90 262.81 355.45 C 262.51 354.84 261.90 353.60 261.59 352.98 C 263.84 339.22 272.09 326.19 284.63 319.69 Z" />
<path fill="#ffffff" d=" M 614.70 341.40 C 626.46 341.00 638.24 341.34 650.01 341.21 C 659.72 341.43 669.40 341.77 679.06 342.83 C 686.78 344.07 694.54 345.42 701.92 348.11 C 707.66 350.71 713.46 353.56 718.00 358.03 C 724.20 363.79 727.47 371.99 729.07 380.15 C 729.97 387.00 730.00 394.03 729.10 400.88 C 727.78 406.37 725.71 411.71 722.50 416.38 C 717.59 423.04 710.35 427.62 702.87 430.92 C 698.01 432.65 693.00 433.91 687.99 435.11 C 682.38 436.15 676.69 436.65 671.03 437.29 C 653.35 437.34 635.66 437.33 617.97 437.30 C 615.20 437.59 613.12 435.60 611.62 433.55 C 611.48 403.90 611.41 374.23 611.65 344.57 C 612.63 343.48 613.64 342.43 614.70 341.40 Z" />
<path fill="#000000" d=" M 0.00 663.09 L 0.75 662.74 C 0.98 663.06 1.45 663.69 1.69 664.00 L 0.00 664.00 L 0.00 663.09 Z" />
<path fill="#000000" d=" M 1503.19 664.00 C 1503.45 663.70 1503.97 663.10 1504.23 662.80 L 1505.00 663.14 L 1505.00 664.00 L 1503.19 664.00 Z" />
</svg>
