<?xml version="1.0" encoding="utf-8"?>
<!-- Generator: Adobe Illustrator 19.1.0, SVG Export Plug-In . SVG Version: 6.00 Build 0)  -->
<svg version="1.1" id="Capa_1" xmlns="http://www.w3.org/2000/svg" xmlns:xlink="http://www.w3.org/1999/xlink" x="0px" y="0px"
	 viewBox="0 0 512 512" style="enable-background:new 0 0 512 512;" xml:space="preserve">
<polygon points="140.2,372.8 141,371.9 141,372.8 "/>
<rect x="74.1" y="343.9" width="36.1" height="28.9"/>
<polygon points="418.1,103.5 418.1,313 199.7,313 199.7,313.3 141,371.9 141,313.7 140,313.7 140,313 74.1,313 74.1,103.5 "/>
<polygon points="478,103.5 478,372.8 382.5,372.8 382.5,454 301.2,372.8 183.8,372.8 212.7,343.9 418.1,343.9 418.1,344 448.8,344 
	448.8,103.5 "/>
<polygon points="433.5,59.5 433.5,328.8 206.4,328.8 125.1,410 125.1,328.8 29.6,328.8 29.6,59.5 "/>
<polygon points="141,371.9 141,372.8 140.2,372.8 "/>
<polygon points="141,371.9 141,372.8 140.2,372.8 "/>
</svg>
