<?xml version="1.0" encoding="utf-8"?>
<!-- Generator: Adobe Illustrator 19.1.0, SVG Export Plug-In . SVG Version: 6.00 Build 0)  -->
<svg version="1.1" id="Capa_1" xmlns="http://www.w3.org/2000/svg" xmlns:xlink="http://www.w3.org/1999/xlink" x="0px" y="0px"
	 viewBox="-319 161 640 480" style="enable-background:new -319 161 640 480;" xml:space="preserve">
<rect x="-24.607" y="205.311" transform="matrix(-0.7071 -0.7071 0.7071 -0.7071 -268.4795 688.2061)" width="65.799" height="388.791"/>
<polygon points="197.53,369.61 187.6,379.54 187.48,379.42 168.4,398.5 26.5,256.6 84.4,198.7 196.82,311.02 187.6,320.23 
	167.87,339.96 189.15,361.23 "/>
<polygon points="125.035,475.535 96.625,469.495 96.615,469.495 94.935,469.135 69.355,494.715 69.335,494.735 76.035,524.535 
	-117.7,330.8 -91.5,337.8 -62.1,308.4 -69.3,281.1 88.715,439.205 88.725,439.205 89.485,439.975 "/>
<polygon points="-34.2,227 -6.3,323.9 -75.6,393.2 -172.5,365.3 -200.4,268.4 -194.7,262.7 -129.8,327.6 -125.4,328.7 -117.7,330.8 
	-91.5,337.8 -62.1,308.4 -69.3,281.1 -71.1,274.4 -72.5,269.1 -136.8,204.8 -131.1,199.1 "/>
<path d="M169.382,518.308v-0.01l-15.41-57.52l-1.08-4.03l-4.01-1.07l-0.01-0.01l-57.7-15.46l-1.93-0.52h-0.01l-1.83-0.49l-2.74,2.74
	l-42.44,42.45l-2.75,2.75l0.29,1.09l0.71,2.65l15.53,57.97l1.01,3.77l3.78,1.01l57.88,15.51l3.83,1.03l2.79-2.79l42.28-42.29
	l2.86-2.86L169.382,518.308z M114.452,539.718l-28.7-7.8l-6.4-1.7l-1.7-6.4l-7.78-28.62l25.58-25.58l1.68,0.36h0.01l27.01,7.34
	l6.4,1.7l1.7,6.4l7.8,28.7L114.452,539.718z"/>
</svg>
