<?xml version="1.0" encoding="utf-8"?>
<!-- Generator: Adobe Illustrator 19.1.0, SVG Export Plug-In . SVG Version: 6.00 Build 0)  -->
<svg version="1.1" xmlns="http://www.w3.org/2000/svg" xmlns:xlink="http://www.w3.org/1999/xlink" x="0px" y="0px"
	 viewBox="-387 149 504 504" style="enable-background:new -387 149 504 504;" xml:space="preserve">
<g id="Capa_1">
	<g id="Capa_2">
	</g>
	<path d="M-113.12,516.62l-4.67-4.66l17.55,17.55L-113.12,516.62z"/>
	<path d="M-113.12,516.62l-4.67-4.66l17.55,17.55L-113.12,516.62z"/>
	<polygon points="-95.57,534.17 -95.57,565.6 -100.24,570.26 -117.79,587.81 -149.21,587.81 -171.43,565.6 -171.43,534.17 
		-149.21,511.96 -117.79,511.96 -100.24,529.51 	"/>
	<path d="M-89.16,475.87V167.72h-90.68v308.15l-39.06,39.05v69.92l49.44,49.44h69.92l49.44-49.44v-69.92L-89.16,475.87z
		 M-149.84,484.92v-287.2h30.68v286.97l30,30.01l11.46,11.46v47.25l-33.27,33.27h-47.06l-33.27-33.27v-47.06"/>
</g>
<g id="Capa_2_1_">
</g>
</svg>
