<?xml version="1.0" encoding="utf-8"?>
<!-- Generator: Adobe Illustrator 19.1.0, SVG Export Plug-In . SVG Version: 6.00 Build 0)  -->
<svg version="1.1" id="Capa_3" xmlns="http://www.w3.org/2000/svg" xmlns:xlink="http://www.w3.org/1999/xlink" x="0px" y="0px"
	 viewBox="-387 149 504 504" style="enable-background:new -387 149 504 504;" xml:space="preserve">
<polygon points="-91.858,236.39 -133.989,308.116 -175.512,378.075 -177.564,378.552 -177.564,378.57 -177.935,379.224 
	-205.592,363.132 -206.441,359.984 -209.589,360.833 -241.491,343.308 -240.377,341.363 -179.738,236.39 "/>
<polygon points="-32.27,408.633 -35.931,407.66 -31.156,403.08 "/>
<polygon points="62.305,500.378 62.287,500.378 -23.251,501.156 -23.693,500.396 -47.779,458.768 -49.247,456.239 -62.086,434.063 
	-62.563,433.232 -62.545,433.214 -41.908,413.408 -27.266,417.334 -23.64,395.865 -7.176,380.055 1.312,394.769 16.078,420.34 "/>
<polygon points="-151.143,537.656 -144.423,530.937 -144.423,544.376 "/>
<polygon points="-144.423,520.91 -161.188,537.674 -144.423,554.439 -144.423,574.917 -332.299,574.917 -332.299,500.396 
	-144.423,500.396 "/>
<g>
	<path d="M57.305,505.387v64.521l-159.39,0.009l-28.095-32.419l25.185-32.102L57.305,505.387 M62.305,500.387l-169.733,0.009
		l-29.232,37.26l32.291,37.26l166.673-0.01V500.387L62.305,500.387z"/>
</g>
<g>
	<path d="M-225.769,393.032l18.179,30.395l-12.82,22.213l-30.169,52.256l-19.021,32.932l-55.871-32.259l50.712-87.84l9.649-16.705
		L-225.769,393.032 M-222.976,387.96l-44.953,1.132h-0.106l-11.053,19.134l-53.212,92.17l0.088,0.053l64.441,37.207l21.522-37.26
		l30.169-52.257l14.289-24.758L-222.976,387.96L-222.976,387.96z"/>
</g>
<g>
	<path d="M-93.028,241.39l52.69,91.799l6.289,10.952l-9.341,42.643l-53.277-21.32l-33.785-59.718l-29.993-52.116l-7.039-12.225
		L-93.028,241.39 M-90.133,236.39l-85.998,0.018l11.353,19.718l29.992,52.115l34.626,61.205l0.159,0.071l0.884,0.354l59.348,23.75
		l11.017-50.294l-7.251-12.626L-90.133,236.39L-90.133,236.39z"/>
</g>
<polygon points="-125.589,573.272 -127.234,574.917 -159.561,574.917 -196.804,537.656 -159.543,500.396 -127.234,500.396 
	-125.572,502.058 -161.188,537.674 "/>
<polygon points="-115.527,537.674 -79.929,573.272 -81.574,574.917 -113.9,574.917 -144.423,544.376 -151.143,537.656 
	-113.883,500.396 -81.574,500.396 -79.911,502.058 "/>
<g>
	<polygon points="-175.512,378.075 -176.201,379.224 -176.201,379.242 -176.573,379.896 -193.107,408.545 -193.107,408.562 
		-193.408,408.633 -205.592,363.132 -206.441,359.984 -209.589,360.833 -255.09,373.017 -256.222,368.808 -241.491,343.308 
		-188.633,329.143 	"/>
	<polygon points="-198.342,417.617 -215.938,448.086 -215.938,448.104 -216.079,448.139 -216.238,448.175 -229.272,399.526 
		-277.921,412.559 -279.052,408.35 -279.088,408.226 -268.035,389.092 -267.929,389.092 -264.322,382.85 -211.464,368.685 	"/>
</g>
<g>
	<polygon points="1.312,394.769 -9.44,448.175 -62.05,434.08 -62.05,434.063 -62.086,434.063 -62.563,433.232 -62.545,433.214 
		-76.958,408.244 -75.897,404.3 -41.908,413.408 -27.266,417.334 -23.64,395.865 -19.06,368.667 -12.782,370.347 -7.176,380.055 	
		"/>
	<polygon points="-21.518,355.227 -31.156,403.08 -32.27,408.633 -35.931,407.66 -84.881,394.539 -99.116,369.869 -100.001,369.516 
		-99.788,368.702 -99.647,368.189 -98.727,364.759 -50.096,377.792 -41.89,329.125 -36.002,330.699 -35.613,330.805 	"/>
</g>
</svg>
