<?xml version="1.0" encoding="utf-8"?>
<!-- Generator: Adobe Illustrator 19.1.0, SVG Export Plug-In . SVG Version: 6.00 Build 0)  -->
<svg version="1.1" id="Capa_3" xmlns="http://www.w3.org/2000/svg" xmlns:xlink="http://www.w3.org/1999/xlink" x="0px" y="0px"
	 viewBox="-387 149 504 504" style="enable-background:new -387 149 504 504;" xml:space="preserve">
<rect x="-150.26" y="575.04" width="30.16" height="0.01"/>
<rect x="-150.26" y="544.89" width="30.16" height="0.08"/>
<g>
	<rect x="-150.26" y="574.97" width="1.1" height="0.07"/>
	<path d="M-150.26,575.04v0.01h1.1v-0.01H-150.26z M-150.26,544.89v0.08h1.1v-0.08H-150.26z"/>
	<path d="M-356.87,245.52v359.52H86.51V245.52H-356.87z M-119,575.05h-31.26v-0.08h1.1v-30h-1.1v-0.08H-119V575.05z M56.51,514.97
		h-383.38V275.52H56.51V514.97z"/>
</g>
<rect x="-150.26" y="544.89" width="30.16" height="0.08"/>
<rect x="-150.26" y="574.97" width="30.16" height="0.08"/>
<g>
	<polygon points="-55.85,191.93 -109.43,245.52 -151.2,245.52 -151.58,245.14 -135.18,228.75 -77.11,170.67 	"/>
	<polygon points="-118.79,245.14 -119.17,245.52 -160.93,245.52 -214.52,191.93 -193.26,170.67 	"/>
</g>
</svg>
